<svg id="Capa_1" height="512" width="512" xmlns="http://www.w3.org/2000/svg"><path d="M197.24 256.172h-34.93V154.42c0-4.383 1.549-8.639 4.363-11.986l22.297-26.547c7.646-9.092 9.924-21.698 5.947-32.899l-21.552-60.624C168.603 8.988 155.865 0 141.67 0h-28.59C98.885 0 86.147 8.988 81.383 22.368L59.833 82.99c-3.977 11.199-1.698 23.804 5.944 32.894l22.302 26.553a18.647 18.647 0 014.361 11.983v14.28a7.5 7.5 0 0015 0v-14.28a33.665 33.665 0 00-7.877-21.634L77.26 106.233c-4.234-5.036-5.496-12.019-3.293-18.221l21.549-60.617C98.155 19.981 105.214 15 113.08 15h28.59c7.866 0 14.925 4.981 17.563 12.392l21.55 60.618c2.203 6.205.941 13.188-3.296 18.227l-22.297 26.547a33.666 33.666 0 00-7.879 21.636v101.752h-39.87V198.7a7.5 7.5 0 00-15 0v57.472H57.512c-15.193 0-27.554 12.361-27.554 27.554 0 14.35 11.029 26.168 25.054 27.436-3.018 16.269-9.287 52.482-12.403 88.081-2.481 28.344 1.708 57.098 12.112 83.151l.374.931C62.125 500.744 78.844 512 97.688 512h59.375c18.845 0 35.564-11.256 42.595-28.677l.373-.927c10.405-26.054 14.593-54.808 12.112-83.153-3.116-35.598-9.385-71.811-12.403-88.081 14.026-1.268 25.054-13.085 25.054-27.436 0-15.193-12.361-27.554-27.554-27.554zm-11.141 220.662l-.352.876c-4.729 11.719-15.988 19.29-28.684 19.29H97.688c-12.696 0-23.955-7.571-28.684-19.287l-.353-.88c-9.539-23.886-13.377-50.264-11.1-76.282 3.247-37.094 9.99-74.923 12.698-89.27h114.252c2.708 14.342 9.448 52.152 12.698 89.27 2.278 26.018-1.56 52.396-11.1 76.283zm11.141-180.553H57.512c-6.922 0-12.554-5.632-12.554-12.554s5.632-12.554 12.554-12.554H197.24c6.922 0 12.554 5.632 12.554 12.554s-5.632 12.554-12.554 12.554zm278.972 72.662c-3.825-3.537-8.226-7.115-13.078-10.634a7.5 7.5 0 10-8.807 12.142c4.373 3.172 8.311 6.371 11.702 9.506.418.387.668.929.703 1.522.855 14.588 1.731 65.245-22.672 106.919-1.141 1.146-6.825 6.17-20.131 7.817 2.335-15.909 5.629-48.347-1.813-71.363a7.496 7.496 0 00-3.852-4.435c-.84-.409-20.802-10.017-41.314-10.017-20.514 0-40.483 9.608-41.323 10.017a7.498 7.498 0 00-3.854 4.438c-7.435 23.014-4.144 55.452-1.811 71.361-13.301-1.647-18.984-6.672-20.123-7.817-24.401-41.653-23.528-92.326-22.674-106.912a2.25 2.25 0 01.709-1.533c20.813-19.268 53.604-33.138 53.931-33.275a7.5 7.5 0 004.604-6.918V171.98a7.503 7.503 0 00-4.603-6.918c-.328-.138-33.119-14.008-53.938-33.281a2.271 2.271 0 01-.703-1.52c-.855-14.596-1.73-65.274 22.672-106.928 1.142-1.146 6.824-6.164 20.124-7.809-2.333 15.909-5.624 48.347 1.811 71.361a7.501 7.501 0 003.854 4.438c.84.409 20.81 10.017 41.323 10.017s40.475-9.608 41.314-10.017a7.498 7.498 0 003.852-4.435c7.442-23.015 4.148-55.454 1.813-71.363 13.304 1.645 18.99 6.663 20.133 7.809 24.404 41.675 23.526 92.337 22.672 106.921a2.278 2.278 0 01-.707 1.531c-20.823 19.268-53.615 33.139-53.941 33.276a7.5 7.5 0 00-4.604 6.918v167.78a7.502 7.502 0 004.602 6.917c.076.032 7.702 3.244 17.841 8.666a7.5 7.5 0 107.074-13.227 274.364 274.364 0 00-14.517-7.229V176.858c10.308-4.732 35.594-17.278 53.731-34.061 3.276-3.029 5.228-7.167 5.495-11.658.923-15.734 1.84-70.604-25.095-116.053a7.528 7.528 0 00-.453-.677C455.053 12.934 444.497 0 414.98 0a7.501 7.501 0 00-7.356 8.968c.088.44 8.367 42.703 1.139 70.159-5.727 2.38-18.942 7.214-31.813 7.214-12.873 0-26.097-4.835-31.822-7.214-7.203-27.411 1.051-69.722 1.138-70.161A7.503 7.503 0 00338.91 0c-29.508 0-40.063 12.934-41.169 14.409a7.433 7.433 0 00-.452.676c-26.934 45.428-26.019 100.314-25.096 116.063.269 4.485 2.221 8.623 5.492 11.645 18.132 16.785 43.417 29.332 53.725 34.064v158.024c-10.308 4.732-35.592 17.278-53.72 34.06-3.277 3.028-5.229 7.166-5.498 11.66-.922 15.738-1.837 70.616 25.097 116.043.138.232.288.457.45.673 1.106 1.476 11.661 14.422 41.171 14.422a7.503 7.503 0 007.356-8.963c-.087-.441-8.341-42.751-1.138-70.162 5.73-2.381 18.951-7.214 31.822-7.214 12.873 0 26.092 4.835 31.813 7.214 7.21 27.409-1.051 69.72-1.139 70.159a7.501 7.501 0 007.356 8.968c29.519 0 40.074-12.945 41.181-14.421.162-.217.313-.442.451-.675 26.935-45.448 26.018-100.311 25.095-116.048-.267-4.485-2.218-8.624-5.495-11.654z"/></svg>