<svg id="Artboard_30" height="512" viewBox="0 0 64 64" width="512" xmlns="http://www.w3.org/2000/svg"><path d="M50.952 35.048C50.449 23.912 41.258 15 30 15 18.421 15 9 24.42 9 36s9.421 21 21 21c4.27 0 8.334-1.274 11.827-3.664C43.842 55.579 46.754 57 50 57c6.065 0 11-4.935 11-11 0-5.744-4.428-10.467-10.048-10.952zM31 54.96V49h-2v5.949C19.323 54.442 11.558 46.677 11.051 37H17v-2h-5.949c.525-10.011 8.81-18 18.949-18 10.157 0 18.454 8.018 18.952 18.053C43.377 35.583 39 40.288 39 46c0 2.102.603 4.061 1.63 5.733A18.775 18.775 0 0131 54.96zM50 55c-4.963 0-9-4.038-9-9s4.037-9 9-9 9 4.038 9 9-4.037 9-9 9z"/><path d="M50 41c1.103 0 2 .897 2 2h2c0-1.858-1.279-3.411-3-3.858V38h-2v1.142c-1.721.447-3 2-3 3.858 0 2.206 1.794 4 4 4 1.103 0 2 .897 2 2s-.897 2-2 2-2-.897-2-2h-2c0 1.858 1.279 3.411 3 3.858V54h2v-1.142c1.721-.447 3-2 3-3.858 0-2.206-1.794-4-4-4-1.103 0-2-.897-2-2s.897-2 2-2zm-4.525-12.118l-.941-1.765-11.599 6.185a3.98 3.98 0 00-1.934-1.16V19h-2v13.142c-1.721.447-3 2-3 3.858 0 2.206 1.794 4 4 4s4-1.794 4-4a3.96 3.96 0 00-.122-.935zM30 38c-1.103 0-2-.897-2-2s.897-2 2-2 2 .897 2 2-.897 2-2 2z"/><path d="M29.977 63c4.331 0 8.637-1.052 12.452-3.042l-.926-1.773A25.027 25.027 0 0129.977 61C16.204 61 5 49.785 5 36s11.204-25 24.977-25c10.264 0 19.437 6.354 23.184 15.73l-2.646-1.588-1.029 1.715 5 3a.99.99 0 00.833.091c.277-.094.5-.304.609-.576l2-5-1.857-.743-.998 2.497C51.429 16.858 42.884 10.316 33 9.192V7h1c1.654 0 3-1.346 3-3s-1.346-3-3-3h-8c-1.654 0-3 1.346-3 3s1.346 3 3 3h1v2.168C13.521 10.656 3 22.12 3 36c0 14.888 12.102 27 26.977 27zM25 4c0-.551.448-1 1-1h8a1.001 1.001 0 010 2h-8c-.552 0-1-.449-1-1zm4 3h2v2.043C30.659 9.03 30.32 9 29.977 9c-.328 0-.652.013-.977.025z"/></svg>