<svg id="Capa_1" height="512" viewBox="0 0 511.979 511.979" width="512" xmlns="http://www.w3.org/2000/svg"><path d="M255.99 60.485c-73.116 0-132.6 59.484-132.6 132.601 0 73.115 59.484 132.6 132.6 132.6s132.6-59.484 132.6-132.6c0-73.117-59.485-132.601-132.6-132.601zm0 250.2c-64.845 0-117.6-52.755-117.6-117.6s52.755-117.601 117.6-117.601 117.6 52.756 117.6 117.601-52.755 117.6-117.6 117.6z"/><path d="M472.882 425.67l-77.638-116.525 34.093-59.05a12.312 12.312 0 014.308-4.385l16.84-10.123c8.156-4.903 13.224-13.861 13.224-23.378V173.96c0-9.517-5.067-18.475-13.224-23.378l-16.84-10.123a12.32 12.32 0 01-4.308-4.385l-4.133-7.157a7.502 7.502 0 00-10.245-2.745 7.5 7.5 0 00-2.745 10.245l4.133 7.157a27.341 27.341 0 009.569 9.74l16.84 10.123a12.34 12.34 0 015.952 10.522v38.249a12.34 12.34 0 01-5.952 10.522l-16.84 10.123a27.333 27.333 0 00-9.569 9.74l-37.302 64.608a27.352 27.352 0 00-3.65 13.158l-.347 19.644a12.344 12.344 0 01-6.137 10.417l-33.124 19.124a12.332 12.332 0 01-12.09.106l-17.187-9.522a27.351 27.351 0 00-13.22-3.417h-74.604a27.357 27.357 0 00-13.22 3.417l-17.187 9.522a12.343 12.343 0 01-12.089-.106l-33.124-19.124a12.343 12.343 0 01-6.137-10.416l-.347-19.645a27.359 27.359 0 00-3.65-13.158L95.63 242.593a27.341 27.341 0 00-9.569-9.74l-16.84-10.123a12.341 12.341 0 01-5.952-10.522V173.96a12.34 12.34 0 015.953-10.522l16.839-10.123a27.336 27.336 0 009.57-9.74l37.302-64.608a27.336 27.336 0 003.65-13.157l.347-19.645a12.341 12.341 0 016.137-10.417l33.124-19.124a12.338 12.338 0 0112.089-.106l17.187 9.522a27.353 27.353 0 0013.219 3.417h74.604a27.36 27.36 0 0013.221-3.417l17.186-9.522a12.337 12.337 0 0112.09.106l33.124 19.124a12.344 12.344 0 016.137 10.417l.347 19.645a27.363 27.363 0 003.65 13.157l18.358 31.798a7.5 7.5 0 0012.99-7.5l-18.358-31.798a12.325 12.325 0 01-1.643-5.923l-.347-19.645c-.169-9.517-5.394-18.384-13.635-23.142L343.287 3.633c-8.241-4.757-18.535-4.849-26.859-.237l-17.185 9.522a12.319 12.319 0 01-5.952 1.538h-74.604a12.31 12.31 0 01-5.95-1.538L195.55 3.396c-8.324-4.611-18.616-4.521-26.859.237l-33.124 19.124c-8.242 4.759-13.466 13.626-13.635 23.142l-.347 19.646a12.291 12.291 0 01-1.643 5.922L82.64 136.075a12.32 12.32 0 01-4.308 4.385l-16.839 10.123c-8.157 4.903-13.225 13.861-13.225 23.378v38.249c0 9.517 5.067 18.475 13.224 23.378l16.84 10.123a12.301 12.301 0 014.307 4.385l34.093 59.051L39.097 425.67a7.501 7.501 0 00-.629 7.166l21.759 49.708v.001l10.312 23.559a7.5 7.5 0 006.741 4.491l79.967 1.383.13.001a7.5 7.5 0 006.241-3.342l91.229-136.924h2.282l67.728 101.649a7.492 7.492 0 0010.399 2.083 7.499 7.499 0 002.083-10.399l-62.186-93.333h18.137c2.077 0 4.135.532 5.951 1.538l17.186 9.522a26.935 26.935 0 004.191 1.86l74.387 111.646-36.436.63-4.568-6.856a7.5 7.5 0 00-12.482 8.316l6.841 10.268a7.498 7.498 0 006.241 3.342l.13-.001 79.967-1.383a7.5 7.5 0 006.74-4.491l32.072-73.268a7.496 7.496 0 00-.628-7.166zm-299.555-41.023L99.154 495.971l-16.803-.291-6.739-15.396 72.893-109.403 20.187 11.655a26.926 26.926 0 004.635 2.111zm-51.598-55.944l.204 11.568c.168 9.485 5.361 18.323 13.557 23.093L68.466 463.958l-14.613-33.383zm31.68 168.207l-36.436-.63 74.387-111.645a26.977 26.977 0 004.19-1.86l17.186-9.522a12.315 12.315 0 015.951-1.538h18.137zm185.244-112.261a26.887 26.887 0 004.634-2.112l20.187-11.655 72.892 109.403-6.739 15.396-16.802.291zm104.86 79.309l-67.024-100.594c8.195-4.769 13.388-13.607 13.557-23.093l.204-11.57 67.876 101.875z"/><path d="M320.872 160.778l-32.939-11.689-21.296-27.715a13.328 13.328 0 00-10.646-5.246 13.331 13.331 0 00-10.647 5.246l-21.296 27.715-32.938 11.689a13.332 13.332 0 00-8.281 8.505 13.33 13.33 0 001.7 11.747l18.884 27.516a7.5 7.5 0 0010.428 1.939 7.5 7.5 0 001.939-10.428l-17.725-25.827 31.451-11.161a13.398 13.398 0 006.154-4.473l20.332-26.461 20.332 26.461a13.401 13.401 0 006.157 4.474l31.448 11.16-18.882 27.513a13.418 13.418 0 00-2.353 7.238l-.896 33.358-32.007-9.458a13.408 13.408 0 00-7.605.001l-32.002 9.457-.214-8.004c-.111-4.141-3.587-7.438-7.699-7.296a7.499 7.499 0 00-7.296 7.698l.27 10.05a13.333 13.333 0 005.53 10.503 13.32 13.32 0 0011.697 2.014l33.519-9.905 33.521 9.905a13.332 13.332 0 0011.696-2.014 13.33 13.33 0 005.53-10.503l.938-34.938 19.777-28.818c2.381-3.466 3-7.748 1.701-11.748a13.338 13.338 0 00-8.282-8.505z"/></svg>