<svg xmlns="http://www.w3.org/2000/svg" version="1.1" data-name="Layer 1" width="100" viewBox="0 0 29.297 29.297" height="100" id="Layer_1"><path id="path2" d="M28.09 15.232l-5.225 3.827 2.481-.28c-1.66 3.67-5.81 4.939-8.595 5.37l-.847-15.811h3.7V6.846h-3.782l-.102-1.905a2.879 2.563 0 10-2.144 0l-.1 1.905H9.692v1.492h3.7l-.847 15.81C9.76 23.718 5.61 22.46 3.95 18.78l2.481.28-5.225-3.827L0 20.768l1.98-1.538c.816 1.758 3.672 6.743 10.42 7.888v.24l2.248 1.939 2.276-1.939v-.24c6.72-1.145 9.577-6.13 10.394-7.888l1.979 1.538zM13.033 2.552A1.616 1.438 0 1114.648 4a1.612 1.435 0 01-1.615-1.438z" fill="#333" stroke-width=".354"/></svg>